<svg width="26" height="26" viewBox="0 0 26 26" fill="none" xmlns="http://www.w3.org/2000/svg">
<path d="M2.0625 4.40625V21.5938H23.9375V4.40625H2.0625ZM3.625 5.96875H22.375V16.833L18.249 12.6826L17.6875 12.1211L14.1475 15.6611L9.65527 11.1201L9.09375 10.5586L3.625 16.0273V5.96875ZM19.25 7.53125C18.3864 7.53125 17.6875 8.2301 17.6875 9.09375C17.6875 9.9574 18.3864 10.6562 19.25 10.6562C20.1136 10.6562 20.8125 9.9574 20.8125 9.09375C20.8125 8.2301 20.1136 7.53125 19.25 7.53125ZM9.09375 12.7803L16.2715 20.0312H3.625V18.249L9.09375 12.7803ZM17.6875 14.3428L22.375 19.0303V20.0312H18.4932L15.2461 16.7598L17.6875 14.3428Z" fill="black"/>
</svg>
